<mxfile host="Electron" modified="2023-11-23T16:42:51.513Z" agent="Mozilla/5.0 (Windows NT 10.0; Win64; x64) AppleWebKit/537.36 (KHTML, like Gecko) draw.io/21.2.1 Chrome/112.0.5615.87 Electron/24.1.2 Safari/537.36" etag="xQvF8FXWFrmdLsxsiQ1q" version="21.2.1" type="device">
  <diagram id="zZuedDr0pJQxI1ERv0Bj" name="Страница 1">
    <mxGraphModel dx="1658" dy="828" grid="1" gridSize="10" guides="1" tooltips="1" connect="1" arrows="1" fold="1" page="1" pageScale="1" pageWidth="827" pageHeight="1169" math="0" shadow="0">
      <root>
        <mxCell id="0" />
        <mxCell id="1" parent="0" />
        <mxCell id="uDI4GUooswnnRecCaWiu-1" value="" style="rounded=0;whiteSpace=wrap;html=1;" vertex="1" parent="1">
          <mxGeometry x="20" y="50" width="720" height="180" as="geometry" />
        </mxCell>
        <mxCell id="uDI4GUooswnnRecCaWiu-7" value="" style="endArrow=none;dashed=1;html=1;dashPattern=1 3;strokeWidth=2;rounded=0;" edge="1" parent="1" target="uDI4GUooswnnRecCaWiu-1">
          <mxGeometry width="50" height="50" relative="1" as="geometry">
            <mxPoint x="20" y="230" as="sourcePoint" />
            <mxPoint x="70" y="180" as="targetPoint" />
            <Array as="points">
              <mxPoint x="740" y="60" />
            </Array>
          </mxGeometry>
        </mxCell>
        <mxCell id="uDI4GUooswnnRecCaWiu-8" value="" style="endArrow=none;dashed=1;html=1;rounded=0;" edge="1" parent="1" source="uDI4GUooswnnRecCaWiu-1">
          <mxGeometry width="50" height="50" relative="1" as="geometry">
            <mxPoint x="710" y="200" as="sourcePoint" />
            <mxPoint x="740" y="230" as="targetPoint" />
            <Array as="points">
              <mxPoint x="20" y="50" />
            </Array>
          </mxGeometry>
        </mxCell>
        <mxCell id="uDI4GUooswnnRecCaWiu-9" value="&lt;font style=&quot;font-size: 24px;&quot;&gt;Название сайта&lt;/font&gt;" style="text;html=1;strokeColor=none;fillColor=none;align=center;verticalAlign=middle;whiteSpace=wrap;rounded=0;" vertex="1" parent="1">
          <mxGeometry x="70" y="130" width="630" height="30" as="geometry" />
        </mxCell>
        <mxCell id="uDI4GUooswnnRecCaWiu-10" value="&lt;font style=&quot;font-size: 18px;&quot;&gt;Создайте протокол низкой детализации&lt;/font&gt;" style="text;html=1;strokeColor=none;fillColor=none;align=center;verticalAlign=middle;whiteSpace=wrap;rounded=0;" vertex="1" parent="1">
          <mxGeometry x="20" y="10" width="780" height="30" as="geometry" />
        </mxCell>
        <mxCell id="uDI4GUooswnnRecCaWiu-12" value="" style="rounded=0;whiteSpace=wrap;html=1;" vertex="1" parent="1">
          <mxGeometry x="20" y="280" width="790" height="80" as="geometry" />
        </mxCell>
        <mxCell id="uDI4GUooswnnRecCaWiu-13" value="" style="rounded=0;whiteSpace=wrap;html=1;" vertex="1" parent="1">
          <mxGeometry x="30" y="290" width="120" height="60" as="geometry" />
        </mxCell>
        <mxCell id="uDI4GUooswnnRecCaWiu-14" value="" style="rounded=0;whiteSpace=wrap;html=1;" vertex="1" parent="1">
          <mxGeometry x="160" y="290" width="120" height="60" as="geometry" />
        </mxCell>
        <mxCell id="uDI4GUooswnnRecCaWiu-15" value="" style="rounded=0;whiteSpace=wrap;html=1;" vertex="1" parent="1">
          <mxGeometry x="290" y="290" width="120" height="60" as="geometry" />
        </mxCell>
        <mxCell id="uDI4GUooswnnRecCaWiu-16" value="" style="rounded=0;whiteSpace=wrap;html=1;" vertex="1" parent="1">
          <mxGeometry x="420" y="290" width="120" height="60" as="geometry" />
        </mxCell>
        <mxCell id="uDI4GUooswnnRecCaWiu-17" value="" style="rounded=0;whiteSpace=wrap;html=1;" vertex="1" parent="1">
          <mxGeometry x="550" y="290" width="120" height="60" as="geometry" />
        </mxCell>
        <mxCell id="uDI4GUooswnnRecCaWiu-18" value="" style="rounded=1;whiteSpace=wrap;html=1;" vertex="1" parent="1">
          <mxGeometry x="680" y="290" width="120" height="60" as="geometry" />
        </mxCell>
        <mxCell id="uDI4GUooswnnRecCaWiu-20" value="Элемент меню 1" style="text;html=1;strokeColor=none;fillColor=none;align=center;verticalAlign=middle;whiteSpace=wrap;rounded=0;" vertex="1" parent="1">
          <mxGeometry x="40" y="300" width="60" height="30" as="geometry" />
        </mxCell>
        <mxCell id="uDI4GUooswnnRecCaWiu-21" value="Элемент меню2" style="text;html=1;strokeColor=none;fillColor=none;align=center;verticalAlign=middle;whiteSpace=wrap;rounded=0;" vertex="1" parent="1">
          <mxGeometry x="180" y="300" width="60" height="30" as="geometry" />
        </mxCell>
        <mxCell id="uDI4GUooswnnRecCaWiu-22" value="Элемент меню3" style="text;html=1;strokeColor=none;fillColor=none;align=center;verticalAlign=middle;whiteSpace=wrap;rounded=0;" vertex="1" parent="1">
          <mxGeometry x="300" y="300" width="60" height="30" as="geometry" />
        </mxCell>
        <mxCell id="uDI4GUooswnnRecCaWiu-23" value="Элемент меню 4" style="text;html=1;strokeColor=none;fillColor=none;align=center;verticalAlign=middle;whiteSpace=wrap;rounded=0;" vertex="1" parent="1">
          <mxGeometry x="430" y="300" width="60" height="30" as="geometry" />
        </mxCell>
        <mxCell id="uDI4GUooswnnRecCaWiu-24" value="Элемент меню 5" style="text;html=1;strokeColor=none;fillColor=none;align=center;verticalAlign=middle;whiteSpace=wrap;rounded=0;" vertex="1" parent="1">
          <mxGeometry x="570" y="300" width="60" height="30" as="geometry" />
        </mxCell>
        <mxCell id="uDI4GUooswnnRecCaWiu-25" value="Search" style="text;html=1;strokeColor=none;fillColor=none;align=center;verticalAlign=middle;whiteSpace=wrap;rounded=0;" vertex="1" parent="1">
          <mxGeometry x="740" y="305" width="60" height="30" as="geometry" />
        </mxCell>
        <mxCell id="uDI4GUooswnnRecCaWiu-26" value="" style="rounded=0;whiteSpace=wrap;html=1;" vertex="1" parent="1">
          <mxGeometry x="20" y="400" width="780" height="60" as="geometry" />
        </mxCell>
        <mxCell id="uDI4GUooswnnRecCaWiu-27" value="" style="rounded=0;whiteSpace=wrap;html=1;" vertex="1" parent="1">
          <mxGeometry x="10" y="400" width="270" height="60" as="geometry" />
        </mxCell>
        <mxCell id="uDI4GUooswnnRecCaWiu-28" value="Заголовок статьи" style="rounded=0;whiteSpace=wrap;html=1;" vertex="1" parent="1">
          <mxGeometry x="280" y="400" width="290" height="60" as="geometry" />
        </mxCell>
        <mxCell id="uDI4GUooswnnRecCaWiu-29" value="Заголовок статьи" style="text;html=1;strokeColor=none;fillColor=none;align=center;verticalAlign=middle;whiteSpace=wrap;rounded=0;" vertex="1" parent="1">
          <mxGeometry x="30" y="410" width="230" height="30" as="geometry" />
        </mxCell>
        <mxCell id="uDI4GUooswnnRecCaWiu-30" value="Заголовок статьи" style="text;html=1;strokeColor=none;fillColor=none;align=center;verticalAlign=middle;whiteSpace=wrap;rounded=0;" vertex="1" parent="1">
          <mxGeometry x="580" y="415" width="210" height="30" as="geometry" />
        </mxCell>
        <mxCell id="uDI4GUooswnnRecCaWiu-31" value="" style="rounded=0;whiteSpace=wrap;html=1;" vertex="1" parent="1">
          <mxGeometry x="10" y="460" width="790" height="200" as="geometry" />
        </mxCell>
        <mxCell id="uDI4GUooswnnRecCaWiu-32" value="" style="rounded=0;whiteSpace=wrap;html=1;" vertex="1" parent="1">
          <mxGeometry x="10" y="460" width="270" height="200" as="geometry" />
        </mxCell>
        <mxCell id="uDI4GUooswnnRecCaWiu-33" value="" style="rounded=0;whiteSpace=wrap;html=1;" vertex="1" parent="1">
          <mxGeometry x="280" y="460" width="290" height="200" as="geometry" />
        </mxCell>
        <mxCell id="uDI4GUooswnnRecCaWiu-34" value="Текст статьи" style="text;html=1;strokeColor=none;fillColor=none;align=center;verticalAlign=middle;whiteSpace=wrap;rounded=0;" vertex="1" parent="1">
          <mxGeometry x="40" y="510" width="170" height="50" as="geometry" />
        </mxCell>
        <mxCell id="uDI4GUooswnnRecCaWiu-35" value="Текст статьи" style="text;html=1;strokeColor=none;fillColor=none;align=center;verticalAlign=middle;whiteSpace=wrap;rounded=0;" vertex="1" parent="1">
          <mxGeometry x="310" y="510" width="170" height="60" as="geometry" />
        </mxCell>
        <mxCell id="uDI4GUooswnnRecCaWiu-36" value="Текст статьи" style="text;html=1;strokeColor=none;fillColor=none;align=center;verticalAlign=middle;whiteSpace=wrap;rounded=0;" vertex="1" parent="1">
          <mxGeometry x="590" y="520" width="180" height="50" as="geometry" />
        </mxCell>
        <mxCell id="uDI4GUooswnnRecCaWiu-37" value="" style="rounded=0;whiteSpace=wrap;html=1;" vertex="1" parent="1">
          <mxGeometry x="10" y="710" width="780" height="80" as="geometry" />
        </mxCell>
        <mxCell id="uDI4GUooswnnRecCaWiu-38" value="Подвал" style="text;html=1;strokeColor=none;fillColor=none;align=center;verticalAlign=middle;whiteSpace=wrap;rounded=0;" vertex="1" parent="1">
          <mxGeometry x="210" y="730" width="310" height="40" as="geometry" />
        </mxCell>
      </root>
    </mxGraphModel>
  </diagram>
</mxfile>
